<?xml version="1.0" encoding="UTF-8"?>
<svg width="30px" height="34px" viewBox="0 0 30 34" version="1.1" xmlns="http://www.w3.org/2000/svg" xmlns:xlink="http://www.w3.org/1999/xlink">
    <!-- Generator: Sketch 56.3 (81716) - https://sketch.com -->
    <title>Fill 132</title>
    <desc>Created with Sketch.</desc>
    <g id="Page-5" stroke="none" stroke-width="1" fill="none" fill-rule="evenodd">
        <g id="quotes" transform="translate(-704.000000, -814.000000)" fill="#BFBFC1">
            <path d="M710.098737,840.759 L710.098737,840.759 L718.793737,847.076 L727.487737,840.759 L718.793737,834.442 L710.098737,840.759 Z M732.861737,824.221 L732.861737,824.221 L724.166737,830.538 L727.487737,840.759 C732.672737,836.992 734.841737,830.316 732.861737,824.221 L732.861737,824.221 Z M704.724737,824.221 L704.724737,824.221 C702.744737,830.316 704.914737,836.992 710.098737,840.759 L713.419737,830.538 L704.724737,824.221 Z M718.793737,814 L708.046737,814 L704.724737,824.221 L715.472737,824.221 L718.793737,814 Z M732.861737,824.221 L729.540737,814 L718.793737,814 L722.114737,824.221 L732.861737,824.221 Z" id="Fill-132"></path>
        </g>
    </g>
</svg>