<?xml version="1.0" encoding="UTF-8"?>
<svg width="93px" height="34px" viewBox="0 0 93 34" version="1.1" xmlns="http://www.w3.org/2000/svg" xmlns:xlink="http://www.w3.org/1999/xlink">
    <!-- Generator: Sketch 56.3 (81716) - https://sketch.com -->
    <title>Group 2</title>
    <desc>Created with Sketch.</desc>
    <g id="Page-1" stroke="none" stroke-width="1" fill="none" fill-rule="evenodd">
        <g id="quotes" transform="translate(-482.000000, -25.000000)" fill="#0E0E0E">
            <g id="Group-20" transform="translate(474.000000, 24.670000)">
                <g id="Group-2" transform="translate(8.730863, 1.295400)">
                    <path d="M86.2369367,8.677 C84.6269367,8.677 83.2659367,9.427 82.2989367,10.846 C81.3389367,12.256 80.8309367,14.224 80.8309367,16.538 C80.8309367,18.851 81.3389367,20.82 82.2989367,22.23 C83.2659367,23.649 84.6269367,24.398 86.2369367,24.398 C87.8469367,24.398 89.2089367,23.649 90.1749367,22.23 C91.1349367,20.82 91.6429367,18.851 91.6429367,16.538 C91.6429367,14.224 91.1349367,12.256 90.1749367,10.846 C89.2089367,9.427 87.8469367,8.677 86.2369367,8.677 L86.2369367,8.677 Z M86.2369367,22.45 C85.4669367,22.45 84.8599367,22.02 84.3779367,21.134 C83.7959367,20.064 83.4749367,18.431 83.4749367,16.538 C83.4749367,14.644 83.7959367,13.012 84.3779367,11.942 C84.8599367,11.056 85.4669367,10.625 86.2369367,10.625 C87.0069367,10.625 87.6149367,11.056 88.0959367,11.942 C88.6779367,13.012 88.9989367,14.644 88.9989367,16.538 C88.9989367,18.432 88.6779367,20.064 88.0959367,21.134 C87.6149367,22.02 87.0069367,22.45 86.2369367,22.45 L86.2369367,22.45 Z M51.3469367,14.404 L51.3469367,21.166 C51.3469367,22.948 52.8139367,24.398 54.6159367,24.398 C56.1889367,24.398 57.3769367,23.627 57.8139367,23.295 C57.8389367,23.277 57.8699367,23.271 57.8999367,23.281 C57.9289367,23.29 57.9519367,23.313 57.9609367,23.342 L58.2249367,24.196 L60.1729367,24.196 L60.1729367,14.404 L57.6699367,14.404 L57.6699367,21.726 C57.6699367,21.76 57.6499367,21.792 57.6189367,21.808 C57.1479367,22.048 56.2189367,22.451 55.2889367,22.451 C54.4959367,22.451 53.8499367,21.813 53.8499367,21.028 L53.8499367,14.404 L51.3469367,14.404 Z M76.4159367,24.196 L78.9199367,24.196 L78.9199367,17.434 C78.9199367,15.651 77.4529367,14.201 75.6499367,14.201 C74.3229367,14.201 73.2579367,14.765 72.7419367,15.101 C72.7129367,15.12 72.6759367,15.122 72.6459367,15.106 C72.6159367,15.089 72.5969367,15.058 72.5969367,15.024 L72.5969367,8.881 L70.0929367,8.881 L70.0929367,24.196 L72.5969367,24.196 L72.5969367,16.874 C72.5969367,16.839 72.6159367,16.807 72.6479367,16.792 C73.1179367,16.552 74.0469367,16.149 74.9769367,16.149 C75.3619367,16.149 75.7229367,16.297 75.9939367,16.565 C76.2659367,16.834 76.4159367,17.191 76.4159367,17.571 L76.4159367,24.196 Z M61.9779367,16.352 L63.5019367,16.352 C63.5529367,16.352 63.5949367,16.393 63.5949367,16.444 L63.5949367,21.83 C63.5949367,23.246 64.7599367,24.398 66.1919367,24.398 C66.7109367,24.398 67.2229367,24.324 67.7159367,24.178 L67.7159367,22.409 C67.4279367,22.434 67.0979367,22.45 66.8639367,22.45 C66.4419367,22.45 66.0979367,22.111 66.0979367,21.693 L66.0979367,16.444 C66.0979367,16.393 66.1399367,16.351 66.1919367,16.351 L67.7159367,16.351 L67.7159367,14.404 L66.1919367,14.404 C66.1399367,14.404 66.0979367,14.363 66.0979367,14.312 L66.0979367,11.078 L63.5949367,11.078 L63.5949367,14.312 C63.5949367,14.363 63.5529367,14.404 63.5019367,14.404 L61.9779367,14.404 L61.9779367,16.352 Z M47.3429367,24.196 L49.9469367,24.196 L45.9869367,10.537 C45.6689367,9.442 44.6419367,8.677 43.4899367,8.677 C42.3379367,8.677 41.3109367,9.442 40.9929367,10.537 L37.0329367,24.196 L39.6369367,24.196 L40.7839367,20.242 C40.7949367,20.202 40.8319367,20.176 40.8739367,20.176 L46.1069367,20.176 C46.1489367,20.176 46.1849367,20.202 46.1959367,20.242 L47.3429367,24.196 Z M45.4879367,18.228 L41.4919367,18.228 C41.4629367,18.228 41.4349367,18.214 41.4179367,18.191 C41.3999367,18.168 41.3939367,18.138 41.4029367,18.11 L43.4009367,11.219 C43.4119367,11.18 43.4489367,11.153 43.4899367,11.153 C43.5319367,11.153 43.5689367,11.18 43.5799367,11.219 L45.5779367,18.11 C45.5859367,18.138 45.5809367,18.168 45.5629367,18.191 C45.5459367,18.214 45.5179367,18.228 45.4879367,18.228 L45.4879367,18.228 Z" id="Fill-7"></path>
                    <path d="M6.09873671,26.759 L6.09873671,26.759 L14.7937367,33.076 L23.4877367,26.759 L14.7937367,20.442 L6.09873671,26.759 Z M28.8617367,10.221 L28.8617367,10.221 L20.1667367,16.538 L23.4877367,26.759 C28.6727367,22.992 30.8417367,16.316 28.8617367,10.221 L28.8617367,10.221 Z M0.724736709,10.221 L0.724736709,10.221 C-1.25526329,16.316 0.914736709,22.992 6.09873671,26.759 L9.41973671,16.538 L0.724736709,10.221 Z M14.7937367,0 L4.04673671,0 L0.724736709,10.221 L11.4727367,10.221 L14.7937367,0 Z M28.8617367,10.221 L25.5407367,0 L14.7937367,0 L18.1147367,10.221 L28.8617367,10.221 Z" id="Fill-9"></path>
                </g>
            </g>
        </g>
    </g>
</svg>