<?xml version="1.0" encoding="UTF-8"?>
<svg width="36px" height="37px" viewBox="0 0 36 37" version="1.1" xmlns="http://www.w3.org/2000/svg" xmlns:xlink="http://www.w3.org/1999/xlink">
    <!-- Generator: Sketch 56.3 (81716) - https://sketch.com -->
    <title>Group</title>
    <desc>Created with Sketch.</desc>
    <g id="Page-5" stroke="none" stroke-width="1" fill="none" fill-rule="evenodd" stroke-linecap="round" stroke-linejoin="round">
        <g id="quotes" transform="translate(-866.000000, -25.000000)" stroke="#000000" stroke-width="1.6">
            <g id="Group-211" transform="translate(850.000000, 25.670000)">
                <g id="Group" transform="translate(17.319600, 0.804600)">
                    <path d="M33.857,16.928 C33.857,26.278 26.278,33.857 16.929,33.857 C7.579,33.857 0,26.278 0,16.928 C0,7.579 7.579,0 16.929,0 C26.278,0 33.857,7.579 33.857,16.928 Z" id="Stroke-205"></path>
                    <path d="M23.7642,23.7639 L23.7642,22.0549 C23.7642,20.1669 22.2342,18.6369 20.3472,18.6369 L13.5112,18.6369 C11.6232,18.6369 10.0932,20.1669 10.0932,22.0549 L10.0932,23.7639" id="Stroke-207"></path>
                    <path d="M16.9288,8.3836 C18.8168,8.3836 20.3468,9.9136 20.3468,11.8016 C20.3468,13.6896 18.8168,15.2196 16.9288,15.2196 C15.0408,15.2196 13.5108,13.6896 13.5108,11.8016 C13.5108,9.9136 15.0408,8.3836 16.9288,8.3836 Z" id="Stroke-209"></path>
                </g>
            </g>
        </g>
    </g>
</svg>